<svg height="512pt" viewBox="-103 0 512 512.00001" width="512pt" xmlns="http://www.w3.org/2000/svg"><path d="m83.644531 173.636719c-46.121093 0-83.644531-37.527344-83.644531-83.648438 0-46.125 37.523438-83.648437 83.644531-83.648437 46.125 0 83.648438 37.523437 83.648438 83.648437 0 6.476563-.746094 12.9375-2.21875 19.199219l-52.734375 59.390625c-9.1875 3.355469-18.839844 5.058594-28.695313 5.058594zm0 0" fill="#fed843"/><g fill="#e0f4fe"><path d="m163.117188 365.507812h30.113281v132.699219h-30.113281zm0 0"/><path d="m178.175781 380.566406c-27.878906 0-54.269531-12.140625-72.40625-33.3125s-26.089843-49.113281-21.8125-76.660156l12.59375-81.136719-12.855469-98.773437h188.957032l-12.855469 98.773437 12.59375 81.136719c4.277344 27.546875-3.671875 55.488281-21.8125 76.660156-18.136719 21.167969-44.527344 33.3125-72.402344 33.3125zm0 0"/><path d="m94.058594 481.890625h168.230468v30.109375h-168.230468zm0 0"/></g><path d="m178.175781 365.507812h15.054688v132.699219h-15.054688zm0 0" fill="#bcdbfd"/><path d="m178.175781 481.890625h84.113281v30.109375h-84.113281zm0 0" fill="#bcdbfd"/><path d="m272.390625 270.59375-12.59375-81.136719 12.855469-98.773437h-94.476563v289.878906c27.875 0 54.265625-12.140625 72.402344-33.308594 18.140625-21.171875 26.089844-49.113281 21.8125-76.660156zm0 0" fill="#bcdbfd"/><path d="m264.226562 218h-172.105468l-8.164063 52.59375c-4.277343 27.546875 3.675781 55.488281 21.8125 76.660156 18.136719 21.167969 44.527344 33.3125 72.40625 33.3125 27.875 0 54.265625-12.140625 72.40625-33.3125 18.136719-21.171875 26.085938-49.113281 21.8125-76.660156zm0 0" fill="#97de3d"/><path d="m272.390625 270.59375-8.164063-52.59375h-86.050781v162.566406c27.875 0 54.265625-12.140625 72.402344-33.3125 18.140625-21.171875 26.089844-49.113281 21.8125-76.660156zm0 0" fill="#59c36a"/><path d="m177.472656 315.285156-29.460937-6.226562 65.300781-309.058594h93.347656v30.109375h-68.933594zm0 0" fill="#fa235e"/><path d="m213.3125 0-35.136719 166.304688v145.652343l59.550781-281.847656h68.933594v-30.109375zm0 0" fill="#c91341"/></svg>